<?xml version="1.0" standalone="no"?>
<!DOCTYPE svg PUBLIC "-//W3C//DTD SVG 20010904//EN"
 "http://www.w3.org/TR/2001/REC-SVG-20010904/DTD/svg10.dtd">
<svg version="1.0" xmlns="http://www.w3.org/2000/svg"
 width="1056.000000pt" height="1056.000000pt" viewBox="0 0 1056.000000 1056.000000"
 preserveAspectRatio="xMidYMid meet">
<metadata>
Created by potrace 1.11, written by Peter Selinger 2001-2013
</metadata>
<g transform="translate(0.000000,1056.000000) scale(0.100000,-0.100000)"
fill="#000000" stroke="none">
<path d="M5588 10555 c-3 -3 -39 -8 -79 -10 -41 -2 -90 -7 -109 -9 -19 -3 -53
-8 -75 -11 -34 -4 -188 -37 -235 -49 -146 -39 -350 -131 -440 -199 -74 -55
-130 -111 -130 -128 0 -21 20 -38 36 -32 11 4 13 -8 9 -63 -3 -38 -7 -108 -10
-155 -5 -98 -12 -184 -22 -279 -3 -36 -7 -82 -7 -102 -1 -21 -3 -38 -6 -38 -6
0 -13 -165 -14 -317 -1 -94 1 -103 23 -127 26 -27 59 -34 78 -15 8 8 19 5 41
-11 44 -33 113 -47 206 -43 95 4 117 6 133 16 6 4 13 1 16 -6 6 -16 0 -540 -7
-592 -3 -22 -8 -75 -12 -117 -5 -69 -4 -77 14 -87 13 -7 22 -7 29 0 7 7 16 1
28 -18 10 -15 26 -34 34 -41 24 -19 103 -58 131 -65 23 -6 26 -11 26 -57 l0
-50 -71 -1 c-105 -1 -299 -15 -346 -25 -13 -2 -44 -6 -69 -9 -50 -4 -82 -10
-155 -27 -27 -6 -59 -13 -70 -14 -11 -1 -20 -3 -20 -4 0 -1 -7 -3 -15 -5 -8
-2 -55 -12 -105 -23 -49 -12 -101 -23 -115 -26 -14 -2 -63 -14 -110 -25 -47
-12 -96 -24 -109 -27 -13 -3 -33 -10 -43 -15 -11 -6 -28 -12 -38 -14 -34 -7
-204 -78 -280 -118 -91 -48 -429 -248 -487 -288 -23 -16 -46 -29 -52 -29 -6 0
-11 -4 -11 -10 0 -5 -5 -10 -11 -10 -5 0 -41 -20 -79 -45 -38 -25 -74 -45 -79
-45 -6 0 -11 -4 -11 -9 0 -8 -62 -45 -64 -39 -1 2 -11 17 -24 35 -12 18 -22
35 -22 38 0 4 -6 12 -12 20 -7 7 -21 23 -30 36 -88 124 -119 166 -131 179 -7
8 -24 33 -37 55 -13 22 -29 43 -34 47 -6 4 -8 8 -3 8 4 0 1 10 -7 23 -17 28
-28 72 -30 118 -1 29 2 35 19 35 11 -1 19 5 17 12 -1 7 7 22 18 34 11 12 20
32 20 45 0 28 -33 48 -58 34 -21 -11 -42 3 -42 26 0 7 -4 13 -10 13 -5 0 -10
9 -10 20 0 11 -4 20 -10 20 -5 0 -10 5 -10 10 0 15 -183 303 -252 397 -21 29
-38 59 -38 68 0 8 -4 15 -10 15 -5 0 -16 16 -24 35 -33 79 -97 114 -137 74
-12 -12 -19 -29 -16 -39 5 -20 -25 -39 -31 -21 -9 26 -71 23 -163 -10 -209
-73 -377 -208 -414 -333 -21 -69 -20 -71 30 -122 25 -24 45 -48 45 -52 0 -4
10 -19 23 -32 24 -28 29 -35 209 -298 65 -96 118 -176 118 -178 0 -2 20 -30
43 -61 24 -32 52 -73 63 -90 10 -18 22 -33 26 -33 4 0 8 -5 8 -11 0 -13 19
-32 48 -48 17 -9 27 -9 43 0 16 8 23 8 28 0 17 -27 81 -30 194 -8 7 1 11 -4
10 -10 -2 -7 2 -13 7 -13 6 0 10 -7 10 -15 0 -8 5 -15 10 -15 6 0 10 -4 10 -9
0 -18 72 -135 114 -185 41 -50 88 -78 115 -69 9 3 3 -6 -14 -21 -105 -91 -150
-133 -249 -232 -132 -131 -212 -219 -286 -314 -19 -25 -43 -54 -52 -65 -9 -11
-35 -45 -57 -75 -22 -30 -45 -61 -51 -67 -6 -7 -8 -13 -5 -13 4 0 0 -7 -9 -15
-12 -13 -72 -107 -186 -295 -13 -22 -149 -290 -150 -295 0 -3 -12 -31 -25 -62
-14 -31 -28 -67 -31 -80 -4 -13 -11 -23 -17 -23 -6 0 -8 -3 -4 -6 3 -3 -5 -33
-18 -67 -12 -34 -35 -98 -49 -142 -14 -44 -30 -93 -35 -110 -16 -47 -42 -156
-66 -275 -23 -111 -24 -121 -30 -169 -3 -25 -7 -54 -10 -65 -5 -26 -12 -86
-22 -191 -17 -184 -8 -1061 12 -1155 3 -14 7 -43 9 -65 2 -22 9 -67 15 -100 6
-33 14 -73 16 -90 3 -16 8 -38 11 -47 7 -25 14 -59 20 -97 2 -18 9 -42 15 -52
5 -10 8 -19 5 -19 -3 0 0 -15 5 -32 6 -18 12 -40 14 -48 9 -41 79 -239 95
-270 10 -19 35 -69 56 -110 20 -41 48 -92 61 -112 12 -21 23 -42 23 -48 0 -5
3 -10 8 -10 4 0 16 -17 27 -37 11 -21 23 -42 28 -48 4 -5 32 -48 64 -95 56
-85 128 -185 147 -206 6 -7 25 -29 43 -50 67 -83 272 -303 362 -388 36 -34 75
-71 88 -83 13 -12 23 -20 23 -17 0 3 10 -5 22 -17 13 -11 43 -35 68 -52 25
-17 47 -33 50 -37 3 -3 34 -27 70 -53 36 -26 70 -50 75 -55 6 -4 53 -38 105
-77 52 -38 97 -72 100 -75 15 -16 94 -72 240 -170 127 -86 262 -151 400 -192
113 -35 187 -57 240 -72 52 -15 277 -69 330 -80 14 -2 108 -20 210 -39 102
-19 203 -38 225 -43 60 -11 66 -12 115 -20 25 -4 52 -9 60 -11 8 -1 29 -5 45
-7 17 -3 45 -7 64 -11 18 -3 59 -8 90 -12 76 -8 511 -11 511 -4 0 3 26 6 57 5
32 0 83 4 113 8 30 5 75 10 100 13 48 6 172 28 255 46 28 5 61 12 75 15 64 11
126 27 136 35 6 5 13 6 16 4 3 -3 18 -1 34 6 16 6 36 12 44 15 67 16 146 40
150 44 3 3 10 6 15 6 25 3 201 58 210 66 5 4 15 8 22 8 8 0 80 25 161 55 81
31 152 57 157 58 6 1 12 4 15 8 3 3 30 15 60 28 100 42 245 113 248 122 2 5 7
7 12 4 5 -3 14 0 22 7 7 7 33 23 58 35 55 27 123 66 130 74 3 3 19 13 35 22
52 26 295 193 370 254 6 5 32 26 60 48 27 22 55 45 61 50 6 6 42 37 80 70 69
61 259 248 325 321 40 45 192 232 230 284 61 83 99 140 99 149 0 5 7 11 15 15
8 3 15 12 15 21 0 8 4 15 8 15 4 0 18 19 30 42 12 24 36 66 54 93 31 49 196
369 198 383 1 4 10 27 21 51 10 24 19 46 19 50 0 3 6 18 14 32 7 15 24 58 36
95 13 38 26 74 30 79 5 6 9 15 9 20 2 18 22 88 38 135 8 25 17 54 19 65 5 27
11 52 24 100 6 22 13 51 16 65 2 14 9 48 14 75 18 88 20 99 25 144 3 25 7 54
10 65 5 26 12 88 22 191 9 100 9 506 0 600 -4 39 -9 88 -11 110 -5 55 -15 125
-22 155 -3 14 -7 72 -9 130 -8 213 -30 336 -105 597 -29 98 -58 201 -66 228
-8 28 -16 57 -19 65 -18 61 -37 128 -50 173 -17 61 -20 68 -69 167 -47 96 -76
147 -139 240 -51 77 -166 222 -179 228 -5 2 -8 10 -8 18 0 8 -4 14 -9 14 -5 0
-28 26 -52 57 -86 112 -177 208 -289 303 -91 77 -108 92 -166 141 -28 24 -62
53 -75 64 -29 23 -160 99 -244 140 -33 16 -63 33 -66 38 -3 5 -8 8 -10 6 -4
-2 -35 12 -204 91 -67 32 -255 138 -265 151 -9 11 -133 82 -235 134 -106 55
-159 77 -208 88 -6 1 -16 5 -22 8 -12 8 -62 20 -92 24 -12 2 -37 8 -55 14 -18
6 -46 13 -63 15 -29 3 -65 9 -130 22 -16 3 -46 8 -65 11 -37 5 -168 29 -210
38 -68 14 -85 22 -88 41 -2 10 -17 30 -35 43 -30 22 -32 28 -33 90 -1 76 -10
171 -18 178 -3 3 9 13 27 22 52 27 87 63 87 89 0 19 -4 23 -20 19 -10 -3 -28
3 -39 12 -18 16 -19 32 -18 346 l2 329 44 8 c25 4 49 12 55 18 16 16 36 12 54
-10 16 -19 79 -33 145 -32 26 0 73 30 63 39 -2 3 1 19 8 36 10 24 12 132 10
447 -1 228 -5 438 -9 465 -11 85 -13 126 -15 240 -2 118 -10 145 -40 145 -10
0 -29 15 -41 33 -28 39 -37 48 -69 69 -25 15 -184 71 -281 99 -48 13 -51 14
-89 23 -14 3 -36 7 -49 10 -33 7 -117 18 -166 21 -22 1 -54 5 -70 9 -17 4 -34
4 -37 1z m-30 -90 c-3 -3 -18 -8 -34 -11 -16 -3 -52 -11 -81 -18 -43 -12 -55
-12 -70 -1 -17 12 -16 14 12 20 17 4 34 8 39 9 22 5 139 6 134 1z m-235 -22
c-7 -3 -13 -13 -13 -23 0 -22 -7 -27 -41 -34 -13 -2 -44 -12 -68 -20 -53 -19
-51 -19 -51 -2 0 7 -7 20 -16 27 -15 12 -6 16 67 34 76 18 153 30 122 18z
m-248 -84 c-1 -26 -8 -34 -43 -49 -23 -11 -46 -20 -50 -20 -17 -2 -58 -13 -67
-19 -15 -8 -50 -13 -42 -5 3 4 2 15 -3 25 -7 12 -6 20 2 25 18 11 181 73 194
74 6 0 10 -14 9 -31z m1091 -3 c97 -34 105 -37 99 -46 -3 -5 -31 3 -63 16
-138 61 -148 69 -36 30z m-1363 -99 c3 -8 2 -18 -1 -23 -8 -12 -113 -46 -120
-40 -5 6 23 36 33 36 4 0 18 9 32 20 30 23 49 25 56 7z m-46 -1183 c-3 -3 -12
-4 -19 -1 -8 3 -5 6 6 6 11 1 17 -2 13 -5z m237 -15 c6 -5 -34 -7 -98 -5 -59
2 -113 9 -118 14 -8 8 22 9 98 6 60 -3 113 -10 118 -15z m1120 -37 c3 -5 -1
-9 -9 -9 -8 0 -12 4 -9 9 3 4 7 8 9 8 2 0 6 -4 9 -8z m-624 -724 c0 -4 -10 -8
-22 -9 -27 -1 -68 -6 -118 -16 -47 -8 -129 -10 -124 -2 5 9 58 19 139 26 39 3
71 6 72 7 7 6 53 1 53 -6z m402 -44 c22 -4 26 -10 24 -36 -2 -32 -12 -39 -74
-53 l-33 -7 7 41 c5 32 3 42 -10 47 -9 3 -16 11 -16 16 0 10 22 8 102 -8z m50
-171 c2 -10 5 -45 7 -78 1 -33 4 -67 7 -76 3 -12 -2 -16 -21 -16 -30 0 -35 6
-39 49 -2 18 -7 52 -10 76 -6 38 -5 43 16 52 33 13 35 12 40 -7z m-152 -76 c0
-8 -6 -14 -12 -14 -7 0 -51 -4 -98 -8 -47 -4 -82 -4 -79 -1 4 4 24 9 45 11 52
5 107 15 113 21 10 9 31 3 31 -9z m-335 -167 c3 -6 -1 -7 -9 -4 -18 7 -21 14
-7 14 6 0 13 -4 16 -10z m35 0 c0 -5 -5 -10 -11 -10 -5 0 -7 5 -4 10 3 6 8 10
11 10 2 0 4 -4 4 -10z m255 -4 c165 -11 215 -20 215 -38 0 -7 -17 -8 -47 -4
-27 4 -68 9 -93 11 -25 2 -65 7 -90 11 -25 4 -65 8 -90 9 -25 2 -66 4 -92 6
-27 1 -48 5 -48 9 0 7 105 5 245 -4z m-3264 -23 c14 -16 12 -19 -17 -26 -4 -1
-9 8 -10 21 -4 26 8 29 27 5z m3 -188 c-4 -8 -8 -15 -10 -15 -2 0 -4 7 -4 15
0 8 4 15 10 15 5 0 7 -7 4 -15z m35 -110 c0 -5 -8 1 -18 15 -11 13 -17 29 -14
34 6 9 32 -31 32 -49z m288 -445 c-14 -11 -29 -20 -33 -20 -13 0 31 39 45 39
7 1 2 -8 -12 -19z m-177 -144 c0 -2 -8 -10 -17 -17 -16 -13 -17 -12 -4 4 13
16 21 21 21 13z m5470 -137 c41 -36 91 -79 109 -95 133 -112 176 -158 321
-338 8 -10 25 -30 38 -44 12 -14 22 -28 22 -31 0 -3 15 -22 33 -42 54 -62 67
-79 120 -158 56 -82 54 -79 116 -196 38 -72 73 -155 66 -155 -2 0 -20 30 -41
68 -20 37 -44 75 -52 85 -8 9 -12 17 -9 17 6 0 -149 240 -162 250 -3 3 -38 48
-77 100 -39 52 -82 107 -95 121 -13 14 -49 55 -79 90 -100 116 -392 399 -412
399 -5 0 -8 5 -8 12 0 12 -1 13 110 -83z m-6620 -4189 c6 -11 7 -20 2 -20 -6
0 -12 9 -15 20 -3 11 -3 20 -1 20 2 0 8 -9 14 -20z m20 -41 c0 -10 77 -180
101 -223 6 -10 20 -35 31 -55 70 -126 83 -148 96 -163 8 -10 12 -18 9 -18 -8
0 134 -214 144 -218 5 -2 9 -8 9 -13 0 -12 171 -232 248 -318 70 -80 256 -267
337 -340 57 -51 22 -31 -50 29 -29 24 -285 280 -281 280 2 0 -25 29 -58 64
-34 35 -72 78 -86 96 -14 18 -32 41 -40 50 -72 86 -128 164 -207 291 -43 69
-84 134 -90 145 -34 52 -119 222 -139 276 -33 90 -43 128 -34 128 6 0 10 -5
10 -11z m1600 -1805 c119 -71 437 -234 459 -234 5 0 12 -4 16 -9 6 -10 -13 -6
-100 24 -74 25 -278 126 -295 146 -3 3 -47 34 -97 68 -51 34 -93 64 -93 67 0
4 10 0 23 -8 12 -8 51 -32 87 -54z"/>
</g>
</svg>
